<mxfile host="app.diagrams.net" modified="2023-09-07T11:24:58.705Z" agent="Mozilla/5.0 (Windows NT 10.0; Win64; x64) AppleWebKit/537.36 (KHTML, like Gecko) Chrome/116.0.0.0 Safari/537.36" etag="XNHvu1CzkiuwfGdKEtnR" version="21.6.5" type="device">
  <diagram name="Page-1" id="CzOQGawOu5ieUQj6T0Hp">
    <mxGraphModel dx="1050" dy="534" grid="1" gridSize="10" guides="1" tooltips="1" connect="1" arrows="1" fold="1" page="1" pageScale="1" pageWidth="850" pageHeight="1100" math="0" shadow="0">
      <root>
        <mxCell id="0" />
        <mxCell id="1" parent="0" />
        <mxCell id="ilQ-WZHGmbahhmcc9ENR-32" value="" style="edgeStyle=orthogonalEdgeStyle;rounded=0;orthogonalLoop=1;jettySize=auto;html=1;" edge="1" parent="1" source="ilQ-WZHGmbahhmcc9ENR-2" target="ilQ-WZHGmbahhmcc9ENR-3">
          <mxGeometry relative="1" as="geometry" />
        </mxCell>
        <mxCell id="ilQ-WZHGmbahhmcc9ENR-2" value="Start" style="ellipse;whiteSpace=wrap;html=1;" vertex="1" parent="1">
          <mxGeometry x="125" y="50" width="120" height="80" as="geometry" />
        </mxCell>
        <mxCell id="ilQ-WZHGmbahhmcc9ENR-7" value="" style="edgeStyle=orthogonalEdgeStyle;rounded=0;orthogonalLoop=1;jettySize=auto;html=1;" edge="1" parent="1" source="ilQ-WZHGmbahhmcc9ENR-3" target="ilQ-WZHGmbahhmcc9ENR-34">
          <mxGeometry relative="1" as="geometry">
            <mxPoint x="510" y="970" as="targetPoint" />
          </mxGeometry>
        </mxCell>
        <mxCell id="ilQ-WZHGmbahhmcc9ENR-10" value="" style="edgeStyle=orthogonalEdgeStyle;rounded=0;orthogonalLoop=1;jettySize=auto;html=1;" edge="1" parent="1" source="ilQ-WZHGmbahhmcc9ENR-3" target="ilQ-WZHGmbahhmcc9ENR-9">
          <mxGeometry relative="1" as="geometry" />
        </mxCell>
        <mxCell id="ilQ-WZHGmbahhmcc9ENR-3" value="is argc less than 2" style="rhombus;whiteSpace=wrap;html=1;" vertex="1" parent="1">
          <mxGeometry x="120" y="160" width="130" height="80" as="geometry" />
        </mxCell>
        <mxCell id="ilQ-WZHGmbahhmcc9ENR-15" value="" style="edgeStyle=orthogonalEdgeStyle;rounded=0;orthogonalLoop=1;jettySize=auto;html=1;" edge="1" parent="1" source="ilQ-WZHGmbahhmcc9ENR-5" target="ilQ-WZHGmbahhmcc9ENR-14">
          <mxGeometry relative="1" as="geometry" />
        </mxCell>
        <mxCell id="ilQ-WZHGmbahhmcc9ENR-5" value="read opcodes" style="rounded=0;whiteSpace=wrap;html=1;" vertex="1" parent="1">
          <mxGeometry x="125" y="400" width="120" height="60" as="geometry" />
        </mxCell>
        <mxCell id="ilQ-WZHGmbahhmcc9ENR-12" value="" style="edgeStyle=orthogonalEdgeStyle;rounded=0;orthogonalLoop=1;jettySize=auto;html=1;" edge="1" parent="1" source="ilQ-WZHGmbahhmcc9ENR-9" target="ilQ-WZHGmbahhmcc9ENR-5">
          <mxGeometry relative="1" as="geometry" />
        </mxCell>
        <mxCell id="ilQ-WZHGmbahhmcc9ENR-37" style="edgeStyle=orthogonalEdgeStyle;rounded=0;orthogonalLoop=1;jettySize=auto;html=1;" edge="1" parent="1" source="ilQ-WZHGmbahhmcc9ENR-9">
          <mxGeometry relative="1" as="geometry">
            <mxPoint x="510" y="980.7999877929688" as="targetPoint" />
          </mxGeometry>
        </mxCell>
        <mxCell id="ilQ-WZHGmbahhmcc9ENR-9" value="can open file" style="rhombus;whiteSpace=wrap;html=1;" vertex="1" parent="1">
          <mxGeometry x="115" y="280" width="140" height="80" as="geometry" />
        </mxCell>
        <mxCell id="ilQ-WZHGmbahhmcc9ENR-25" value="" style="edgeStyle=orthogonalEdgeStyle;rounded=0;orthogonalLoop=1;jettySize=auto;html=1;" edge="1" parent="1" source="ilQ-WZHGmbahhmcc9ENR-13" target="ilQ-WZHGmbahhmcc9ENR-24">
          <mxGeometry relative="1" as="geometry" />
        </mxCell>
        <mxCell id="ilQ-WZHGmbahhmcc9ENR-13" value="call function" style="rounded=0;whiteSpace=wrap;html=1;" vertex="1" parent="1">
          <mxGeometry x="125" y="640" width="120" height="60" as="geometry" />
        </mxCell>
        <mxCell id="ilQ-WZHGmbahhmcc9ENR-19" value="" style="edgeStyle=orthogonalEdgeStyle;rounded=0;orthogonalLoop=1;jettySize=auto;html=1;" edge="1" parent="1" source="ilQ-WZHGmbahhmcc9ENR-14" target="ilQ-WZHGmbahhmcc9ENR-13">
          <mxGeometry relative="1" as="geometry" />
        </mxCell>
        <mxCell id="ilQ-WZHGmbahhmcc9ENR-36" style="edgeStyle=orthogonalEdgeStyle;rounded=0;orthogonalLoop=1;jettySize=auto;html=1;entryX=0.5;entryY=0;entryDx=0;entryDy=0;" edge="1" parent="1" source="ilQ-WZHGmbahhmcc9ENR-14" target="ilQ-WZHGmbahhmcc9ENR-34">
          <mxGeometry relative="1" as="geometry" />
        </mxCell>
        <mxCell id="ilQ-WZHGmbahhmcc9ENR-14" value="opcode matches function" style="rhombus;whiteSpace=wrap;html=1;" vertex="1" parent="1">
          <mxGeometry x="117.5" y="520" width="135" height="80" as="geometry" />
        </mxCell>
        <mxCell id="ilQ-WZHGmbahhmcc9ENR-28" value="" style="edgeStyle=orthogonalEdgeStyle;rounded=0;orthogonalLoop=1;jettySize=auto;html=1;" edge="1" parent="1" source="ilQ-WZHGmbahhmcc9ENR-20" target="ilQ-WZHGmbahhmcc9ENR-22">
          <mxGeometry relative="1" as="geometry" />
        </mxCell>
        <mxCell id="ilQ-WZHGmbahhmcc9ENR-20" value="free everything" style="rounded=0;whiteSpace=wrap;html=1;" vertex="1" parent="1">
          <mxGeometry x="125" y="870" width="120" height="60" as="geometry" />
        </mxCell>
        <mxCell id="ilQ-WZHGmbahhmcc9ENR-22" value="End" style="ellipse;whiteSpace=wrap;html=1;" vertex="1" parent="1">
          <mxGeometry x="125" y="980" width="120" height="80" as="geometry" />
        </mxCell>
        <mxCell id="ilQ-WZHGmbahhmcc9ENR-27" value="" style="edgeStyle=orthogonalEdgeStyle;rounded=0;orthogonalLoop=1;jettySize=auto;html=1;" edge="1" parent="1" source="ilQ-WZHGmbahhmcc9ENR-24" target="ilQ-WZHGmbahhmcc9ENR-20">
          <mxGeometry relative="1" as="geometry" />
        </mxCell>
        <mxCell id="ilQ-WZHGmbahhmcc9ENR-30" value="" style="edgeStyle=orthogonalEdgeStyle;rounded=0;orthogonalLoop=1;jettySize=auto;html=1;" edge="1" parent="1" source="ilQ-WZHGmbahhmcc9ENR-24" target="ilQ-WZHGmbahhmcc9ENR-29">
          <mxGeometry relative="1" as="geometry" />
        </mxCell>
        <mxCell id="ilQ-WZHGmbahhmcc9ENR-24" value="function success" style="rhombus;whiteSpace=wrap;html=1;rounded=0;" vertex="1" parent="1">
          <mxGeometry x="117.5" y="750" width="135" height="80" as="geometry" />
        </mxCell>
        <mxCell id="ilQ-WZHGmbahhmcc9ENR-35" style="edgeStyle=orthogonalEdgeStyle;rounded=0;orthogonalLoop=1;jettySize=auto;html=1;" edge="1" parent="1" source="ilQ-WZHGmbahhmcc9ENR-29">
          <mxGeometry relative="1" as="geometry">
            <mxPoint x="510" y="980" as="targetPoint" />
          </mxGeometry>
        </mxCell>
        <mxCell id="ilQ-WZHGmbahhmcc9ENR-29" value="free everything" style="rounded=0;whiteSpace=wrap;html=1;" vertex="1" parent="1">
          <mxGeometry x="300" y="760" width="120" height="60" as="geometry" />
        </mxCell>
        <mxCell id="ilQ-WZHGmbahhmcc9ENR-34" value="Exit failure" style="ellipse;whiteSpace=wrap;html=1;" vertex="1" parent="1">
          <mxGeometry x="450" y="980" width="120" height="80" as="geometry" />
        </mxCell>
      </root>
    </mxGraphModel>
  </diagram>
</mxfile>
